{"title":"The.Joneses.2009.CUSTOM.SWESUB.DVDRip.XviD.AC3-Zen_Bud","uid":5763741,"size":1471526890,"categoryP":"video","categoryS":"movies","magnet":"?xt=urn:btih:1e1175c40c03714fff87cb1b35c6b11cc5470517&amp;dn=The.Joneses.2009.CUSTOM.SWESUB.DVDRip.XviD.AC3-Zen_Bud&amp;tr=udp%3A%2F%2Ftracker.openbittorrent.com%3A80&amp;tr=udp%3A%2F%2Fopen.demonii.com%3A1337&amp;tr=udp%3A%2F%2Ftracker.coppersurfer.tk%3A6969&amp;tr=udp%3A%2F%2Fexodus.desync.com%3A6969","seeders":1,"leechers":0,"uploader":"Zen_Bud","files":-1,"time":1281807588,"description":"General\nComplete name                    : The.Joneses.2009.avi\nFormat                           : AVI\nFile size                        : 1.37 GiB\nDuration                         : 1h 35mn\nOverall bit rate                 : 2 047 Kbps\n\nVideo\n\nFormat                           : MPEG-4 Visual\nCodec ID/Hint                    : XviD\nDuration                         : 1h 35mn\nBit rate                         : 1 588 Kbps\nWidth                            : 720 pixels\nHeight                           : 356 pixels\nDisplay aspect ratio             : 2.35:1\nStream size                      : 1.06 GiB (78%)\nWriting library                  : XviD 1.1.2 (UTC 2006-11-01)\n\nAudio\n\nFormat                           : AC-3\nDuration                         : 1h 35mn\nBit rate                         : 448 Kbps\nChannel(s)                       : 6 channels\nChannel positions                : Front: L C R, Side: L R, LFE\nSampling rate                    : 48.0 KHz\nStream size                      : 307 MiB (22%)\n\n\n*********** Text: Simontax Thx bro for that :)*****************","torrent":{"xt":"urn:btih:1e1175c40c03714fff87cb1b35c6b11cc5470517","amp;dn":"The.Joneses.2009.CUSTOM.SWESUB.DVDRip.XviD.AC3-Zen_Bud","amp;tr":["udp%3A%2F%2Ftracker.openbittorrent.com%3A80","udp%3A%2F%2Fopen.demonii.com%3A1337","udp%3A%2F%2Ftracker.coppersurfer.tk%3A6969","udp%3A%2F%2Fexodus.desync.com%3A6969"],"infoHash":"1e1175c40c03714fff87cb1b35c6b11cc5470517","infoHashBuffer":{"type":"Buffer","data":[30,17,117,196,12,3,113,79,255,135,203,27,53,198,177,28,197,71,5,23]},"announce":[],"urlList":[]}}